HIERARCHY
ROOT Hips
{
  OFFSET -1.56614 0.00 -1.85809
  CHANNELS 6 Xposition Yposition Zposition Zrotation Xrotation Yrotation
  JOINT LHipJoint
  {
    OFFSET 0 0 0
    CHANNELS 3 Zrotation Xrotation Yrotation
    JOINT LeftUpLeg
    {
      OFFSET 1.8 -1.4 0.085
      CHANNELS 3 Zrotation Xrotation Yrotation
      JOINT LeftLeg
      {
        OFFSET 2.215 -6 0
        CHANNELS 3 Zrotation Xrotation Yrotation
        JOINT LeftFoot
        {
          OFFSET 2.5 -6.9 0
          CHANNELS 3 Zrotation Xrotation Yrotation
          JOINT LeftToeBase
          {
            OFFSET 0.2 -0.5 1.95
            CHANNELS 3 Zrotation Xrotation Yrotation
            End Site
            {
              OFFSET 0 0 1
            }
          }
        }
      }
    }
  }
  JOINT RHipJoint
  {
    OFFSET 0 0 0
    CHANNELS 3 Zrotation Xrotation Yrotation
    JOINT RightUpLeg
    {
      OFFSET -1.8 -1.4 0.085
      CHANNELS 3 Zrotation Xrotation Yrotation
      JOINT RightLeg
      {
        OFFSET -2.215 -6 0
        CHANNELS 3 Zrotation Xrotation Yrotation
        JOINT RightFoot
        {
          OFFSET -2.5 -6.9 0
          CHANNELS 3 Zrotation Xrotation Yrotation
          JOINT RightToeBase
          {
            OFFSET -0.2 -0.5 1.95
            CHANNELS 3 Zrotation Xrotation Yrotation
            End Site
            {
              OFFSET 0 0 1
            }
          }
        }
      }
    }
  }
  JOINT LowerBack
  {
    OFFSET 0 0 0
    CHANNELS 3 Zrotation Xrotation Yrotation
    JOINT Spine
    {
      OFFSET -0.087 1.94 -0.2889
      CHANNELS 3 Zrotation Xrotation Yrotation
      JOINT Spine1
      {
        OFFSET 0 1.95 0.06
        CHANNELS 3 Zrotation Xrotation Yrotation
        JOINT Neck
        {
          OFFSET 0 0 0
          CHANNELS 3 Zrotation Xrotation Yrotation
          JOINT Neck1
          {
            OFFSET 0 1.6 0.34
            CHANNELS 3 Zrotation Xrotation Yrotation
            JOINT Head
            {
              OFFSET 0 1.667 -0.24
              CHANNELS 3 Zrotation Xrotation Yrotation
              End Site
              {
                OFFSET 0 1.686 -0.12
              }
            }
          }
        }
        JOINT LeftShoulder
        {
          OFFSET 0 0 0
          CHANNELS 3 Zrotation Xrotation Yrotation
          JOINT LeftArm
          {
            OFFSET 2.7 1.55 -0.73
            CHANNELS 3 Zrotation Xrotation Yrotation
            JOINT LeftForeArm
            {
              OFFSET 5.45 0 0
              CHANNELS 3 Zrotation Xrotation Yrotation
              JOINT LeftHand
              {
                OFFSET 3.45 0 0
                CHANNELS 3 Zrotation Xrotation Yrotation
                JOINT LeftFingerBase
                {
                  OFFSET 0 0 0
                  CHANNELS 3 Zrotation Xrotation Yrotation
                  JOINT LeftHandIndex1
                  {
                    OFFSET 0.75 0 0
                    CHANNELS 3 Zrotation Xrotation Yrotation
                    End Site
                    {
                      OFFSET 0.6 0 0
                    }
                  }
                }
                JOINT LThumb
                {
                  OFFSET 0 0 0
                  CHANNELS 3 Zrotation Xrotation Yrotation
                  End Site
                  {
                    OFFSET 0.59 0 0.59
                  }
                }
              }
            }
          }
        }
        JOINT RightShoulder
        {
          OFFSET 0 0 0
          CHANNELS 3 Zrotation Xrotation Yrotation
          JOINT RightArm
          {
            OFFSET -2.7 1.55 -0.73
            CHANNELS 3 Zrotation Xrotation Yrotation
            JOINT RightForeArm
            {
              OFFSET -5.45 0 0
              CHANNELS 3 Zrotation Xrotation Yrotation
              JOINT RightHand
              {
                OFFSET -3.45 0 0
                CHANNELS 3 Zrotation Xrotation Yrotation
                JOINT RightFingerBase
                {
                  OFFSET 0 0 0
                  CHANNELS 3 Zrotation Xrotation Yrotation
                  JOINT RightHandIndex1
                  {
                    OFFSET -0.75 0 0
                    CHANNELS 3 Zrotation Xrotation Yrotation
                    End Site
                    {
                      OFFSET -0.6 0 0
                    }
                  }
                }
                JOINT RThumb
                {
                  OFFSET 0 0 0
                  CHANNELS 3 Zrotation Xrotation Yrotation
                  End Site
                  {
                    OFFSET -0.59 0 0.59
                  }
                }
              }
            }
          }
        }
      }
    }
  }
}
MOTION
Frames:	5
Frame Time:	0.00833333
-0.594253 18.5098 -6.4853 0.00315168 -0.00161273 -0.00160664 -8.73411e-020 0 3.88251e-019 -17.6976 -5.73849 11.5449 3.57344 3.08018 8.75861 -1.78463 2.80322 -20.5117 -3.48792e-015 0 1.55301e-018 -8.73411e-020 0 3.88251e-019 16.0588 0.255195 -2.68001 0.126759 2.31819 1.74719 0.369935 -2.55574 0.952856 -8.19833e-015 -1.83818e-015 -1.25886e-014 -8.73411e-020 0 3.88251e-019 -0.00100549 -0.00176395 -0.000245156 0.00202482 0.00351123 -0.000598283 -0.00161622 -16 -0.00586356 7.81032e-008 21 -3.73641e-008 0.00202699 11.0014 -0.00397673 0.337749 0.00396332 3.4856 -14.8525 -39.5097 -13.2111 -8.98646 39.0873 -0.26159 1.72236 1.57817 7.21915 -3.92002e-010 6.74429e-008 -4.21859e-007 4.47266e-016 0 1.59028e-015 -1.15544e-015 0 -1.59028e-015 -0.281937 0.0109387 -3.41205 32.1836 -45.1705 29.456 4.62342 52.2779 -0.0186487 -1.80672 -3.06468 -18.8066 1.03042e-015 7.45443e-017 -3.97569e-016 2.62303e-015 9.93923e-017 -1.98785e-016 1.03042e-015 9.93923e-017 -1.98785e-016 
-0.597172 18.5099 -6.48584 0.00315047 -0.00890426 -0.00805451 9.99065e-020 3.10601e-018 3.10601e-018 -17.6825 -5.71633 11.5561 3.57886 3.05088 8.74193 -1.83619 2.8337 -20.5338 3.41566e-015 -9.70628e-019 -1.2424e-017 9.99065e-020 3.10601e-018 3.10601e-018 16.0672 0.231888 -2.66042 0.125952 2.3745 1.72528 0.362947 -2.57202 0.959891 -3.36072e-015 -1.84031e-015 -1.25887e-014 9.99065e-020 3.10601e-018 3.10601e-018 -0.0048597 -0.00766116 -0.00101786 0.00976848 0.0175982 -0.00271665 -0.00161622 -16 -0.00586356 7.81032e-008 21 -3.73641e-008 0.0110561 11.007 -0.0209204 0.337749 0.00396332 3.4856 -14.8777 -39.4932 -13.2158 -8.99502 39.0807 -0.261897 1.69756 1.57808 7.24503 -3.92003e-010 6.74429e-008 -4.21859e-007 2.45996e-015 -3.97569e-016 3.97569e-015 -2.33572e-015 -2.98177e-016 7.95139e-016 -0.277064 0.0109388 -3.40463 32.269 -45.1975 29.5183 4.55397 52.2901 -0.0110017 -1.79459 -3.06414 -18.7831 -1.53204e-015 4.96962e-017 1.98785e-016 5.66847e-017 0 1.98785e-016 -1.53126e-015 7.45443e-017 3.97569e-016 
-0.600089 18.51 -6.48638 0.00314759 -0.0163303 -0.0145058 -1.37253e-019 0 6.21202e-018 -17.6673 -5.69394 11.5673 3.58429 3.0214 8.72514 -1.88826 2.86449 -20.5561 4.61016e-015 1.94126e-019 -2.48481e-017 -1.37253e-019 0 6.21202e-018 16.0755 0.208395 -2.64069 0.125177 2.43143 1.70317 0.355982 -2.58842 0.966978 5.83535e-015 -1.83876e-015 -1.2589e-014 -1.37253e-019 0 6.21202e-018 -0.00868721 -0.013373 -0.00175729 0.0174561 0.031692 -0.00479106 -0.00161622 -16 -0.00586356 7.81032e-008 21 -3.73641e-008 0.0202357 11.0125 -0.0380306 0.337749 0.00396332 3.4856 -14.9028 -39.4766 -13.2205 -9.00366 39.0747 -0.262041 1.67283 1.57799 7.27149 -3.92004e-010 6.74429e-008 -4.21859e-007 -6.55989e-015 9.93923e-017 1.59028e-015 -2.77056e-015 9.93923e-017 1.59028e-015 -0.272127 0.0109389 -3.39711 32.3557 -45.2252 29.5817 4.48321 52.3025 -0.00322287 -1.78238 -3.06354 -18.7588 -4.76773e-016 1.49089e-016 -3.97569e-016 2.70223e-015 0 -1.98785e-016 -4.76773e-016 1.49089e-016 -1.98785e-016 
-0.603034 18.51 -6.48693 0.00314359 -0.0222768 -0.0209196 -1.91092e-019 3.10601e-018 -6.21202e-018 -17.6528 -5.67414 11.5776 3.58935 2.9938 8.70972 -1.93452 2.89168 -20.5752 -2.46125e-015 -1.94126e-019 -0 -1.91092e-019 3.10601e-018 -6.21202e-018 16.0844 0.186946 -2.6224 0.124553 2.48157 1.6832 0.348818 -2.60358 0.973491 7.40331e-015 -1.83876e-015 -1.25906e-014 -1.91092e-019 3.10601e-018 -6.21202e-018 -0.0128105 -0.0211239 -0.00286267 0.0257723 0.0457116 -0.00734905 -0.00161622 -16 -0.00586356 7.81032e-008 21 -3.73641e-008 0.0278008 11.0184 -0.0533173 0.337749 0.00396332 3.4856 -14.9285 -39.4623 -13.2245 -9.01136 39.0609 -0.263978 1.64725 1.57792 7.29167 -3.92e-010 6.74429e-008 -4.21859e-007 -3.3048e-015 1.98785e-016 2.38542e-015 2.39784e-015 0 7.95139e-016 -0.267895 0.0109389 -3.39068 32.4284 -45.2451 29.6336 4.42668 52.313 0.0031565 -1.771 -3.06364 -18.7431 3.06097e-015 -1.98785e-016 -7.95139e-016 3.05321e-015 0 -3.97569e-016 3.06253e-015 -1.98785e-016 -5.96354e-016 
-0.606033 18.5099 -6.48746 0.00313402 -0.0250661 -0.0272503 8.493e-020 6.21202e-018 6.21202e-018 -17.6395 -5.65977 11.586 3.59342 2.97011 8.69703 -1.96877 2.91126 -20.5875 2.84135e-015 -6.98852e-018 -0 8.493e-020 6.21202e-018 6.21202e-018 16.0946 0.170377 -2.60735 0.124182 2.51627 1.66818 0.341232 -2.61567 0.978601 -1.93656e-015 -1.83565e-015 -1.25918e-014 8.493e-020 6.21202e-018 6.21202e-018 -0.0174639 -0.0332879 -0.00475702 0.0353352 0.0596846 -0.0109332 -0.00155789 -16.0001 -0.00586356 6.09057e-005 20.9999 -3.73641e-008 0.031863 11.0251 -0.0648212 0.337749 0.00396332 3.4856 -14.9556 -39.4531 -13.227 -9.01713 39.0306 -0.269635 1.61968 1.57811 7.29847 -3.92003e-010 6.74429e-008 -4.21859e-007 -1.05604e-015 2.98177e-016 7.95139e-016 -2.26118e-015 4.96962e-016 -7.95139e-016 -0.265143 0.010939 -3.38654 32.4714 -45.2487 29.6611 4.39999 52.3196 0.00660065 -1.76121 -3.06526 -18.7459 -2.07947e-015 -9.93923e-017 -1.98785e-016 -4.89197e-016 9.93923e-017 -1.98785e-016 -2.07947e-015 -9.93923e-017 -0 
